<?xml version="1.0" encoding="UTF-8" standalone="no"?>
<svg
   width="501"
   zoomAndPan="magnify"
   viewBox="0 0 375.75 334.49999"
   height="446"
   preserveAspectRatio="xMidYMid meet"
   version="1.0"
   id="svg22"
   sodipodi:docname="Arquero.svg"
   inkscape:version="1.2.2 (b0a8486541, 2022-12-01)"
   xmlns:inkscape="http://www.inkscape.org/namespaces/inkscape"
   xmlns:sodipodi="http://sodipodi.sourceforge.net/DTD/sodipodi-0.dtd"
   xmlns="http://www.w3.org/2000/svg"
   xmlns:svg="http://www.w3.org/2000/svg">
  <sodipodi:namedview
     id="namedview24"
     pagecolor="#ffffff"
     bordercolor="#000000"
     borderopacity="0.25"
     inkscape:showpageshadow="2"
     inkscape:pageopacity="0.0"
     inkscape:pagecheckerboard="0"
     inkscape:deskcolor="#d1d1d1"
     showgrid="false"
     inkscape:zoom="1.8878924"
     inkscape:cx="250.54394"
     inkscape:cy="223.79454"
     inkscape:window-width="1854"
     inkscape:window-height="1011"
     inkscape:window-x="66"
     inkscape:window-y="32"
     inkscape:window-maximized="1"
     inkscape:current-layer="svg22" />
  <defs
     id="defs8">
    <clipPath
       id="eb11bf4833">
      <path
         d="M 0.15625 0 L 375.34375 0 L 375.34375 334 L 0.15625 334 Z M 0.15625 0 "
         clip-rule="nonzero"
         id="path2" />
    </clipPath>
    <clipPath
       id="4ab48c5368">
      <path
         d="M 130.390625 75.753906 L 210.742188 75.753906 L 210.742188 150.300781 L 130.390625 150.300781 Z M 130.390625 75.753906 "
         clip-rule="nonzero"
         id="path5" />
    </clipPath>
  </defs>
  <g
     clip-path="url(#4ab48c5368)"
     id="g18">
    <path
       fill="#333333"
       d="M 130.390625 75.753906 L 210.757812 75.753906 L 210.757812 150.300781 L 130.390625 150.300781 Z M 130.390625 75.753906 "
       fill-opacity="1"
       fill-rule="nonzero"
       id="path16" />
  </g>
  <path
     fill="#100f0d"
     d="M 159.148438 54.890625 C 159.148438 54.890625 146.605469 53.644531 138.472656 58.042969 C 130.328125 62.425781 122.800781 69.316406 116.539062 76.226562 C 110.277344 83.121094 104.015625 88.765625 99 99.433594 C 93.996094 110.085938 92.734375 110.707031 89.605469 117.617188 C 86.472656 124.511719 87.097656 122.625 80.210938 130.15625 C 73.324219 137.671875 60.785156 152.722656 55.160156 164.652344 C 49.519531 176.554688 44.503906 191.617188 44.503906 191.617188 L 39.488281 192.242188 C 39.488281 192.242188 30.714844 207.917969 28.207031 214.808594 C 25.714844 221.71875 21.320312 232.996094 16.304688 238.015625 C 11.304688 243.039062 6.289062 245.546875 3.78125 249.308594 C 1.273438 253.066406 3.78125 259.335938 3.78125 259.335938 C 3.78125 259.335938 0.648438 261.222656 3.15625 266.242188 C 5.664062 271.25 10.042969 268.738281 12.550781 268.117188 C 15.058594 267.492188 19.4375 264.355469 19.4375 264.355469 C 19.4375 264.355469 20.699219 268.117188 25.714844 266.867188 C 30.714844 265.621094 33.847656 261.222656 33.847656 255.578125 C 33.847656 249.929688 34.484375 242.414062 34.484375 242.414062 C 34.484375 242.414062 36.980469 239.277344 40.75 233.632812 C 44.503906 227.988281 44.503906 225.476562 47.011719 219.832031 C 49.519531 214.1875 59.535156 200.398438 59.535156 200.398438 L 57.652344 194.753906 C 57.652344 194.753906 74.570312 178.441406 80.832031 169.660156 C 87.097656 160.878906 90.226562 156.496094 93.359375 151.476562 C 96.488281 146.453125 105.261719 142.695312 107.769531 139.558594 C 110.277344 136.425781 117.800781 127.019531 117.800781 127.019531 C 117.800781 127.019531 117.800781 130.15625 119.046875 133.289062 C 120.308594 136.425781 119.671875 137.050781 117.800781 140.183594 C 115.917969 143.320312 112.785156 150.226562 112.160156 157.746094 C 111.539062 165.277344 107.144531 169.660156 103.390625 177.191406 C 99.636719 184.710938 99.636719 189.109375 95.242188 196 C 90.867188 202.894531 86.472656 212.9375 83.339844 224.851562 C 80.210938 236.769531 75.195312 259.960938 73.324219 271.890625 C 71.4375 283.804688 70.816406 291.324219 65.800781 298.214844 C 60.785156 305.125 59.535156 308.882812 53.273438 313.28125 C 47.011719 317.664062 43.878906 317.039062 45.125 322.683594 C 46.386719 328.332031 47.011719 330.828125 58.289062 329.578125 C 69.554688 328.332031 72.0625 329.578125 75.832031 325.820312 C 79.585938 322.0625 79.585938 323.308594 83.964844 322.683594 C 88.355469 322.0625 90.867188 317.039062 90.867188 310.132812 C 90.867188 303.238281 92.113281 295.71875 92.113281 295.71875 C 90.867188 293.207031 93.359375 277.535156 102.128906 263.109375 C 110.902344 248.683594 115.917969 242.414062 118.425781 231.746094 C 120.933594 221.09375 117.164062 214.808594 120.933594 211.050781 C 124.6875 207.292969 134.082031 206.667969 134.082031 206.667969 C 134.082031 206.667969 131.574219 208.539062 137.214844 211.050781 C 142.851562 213.5625 148.492188 207.292969 150.375 203.519531 C 152.246094 199.761719 161.015625 195.378906 162.902344 192.867188 C 164.773438 190.355469 167.28125 189.730469 167.28125 189.730469 C 167.28125 189.730469 172.296875 192.242188 181.066406 190.980469 C 189.835938 189.730469 189.214844 188.46875 194.214844 189.730469 C 199.230469 190.980469 204.871094 197.886719 206.757812 204.15625 C 208.625 210.425781 206.117188 211.675781 211.132812 212.9375 C 216.148438 214.1875 223.660156 210.425781 223.660156 210.425781 C 223.660156 210.425781 234.9375 214.808594 242.460938 217.945312 C 249.972656 221.09375 258.121094 226.726562 263.136719 227.988281 C 268.136719 229.234375 273.152344 236.144531 273.777344 241.773438 C 274.398438 247.421875 279.417969 260.597656 285.054688 269.378906 C 290.695312 278.160156 299.464844 285.050781 303.21875 293.832031 C 306.976562 302.613281 307.613281 304.484375 306.976562 308.257812 C 306.351562 312.019531 303.84375 313.90625 305.726562 322.683594 C 307.613281 331.464844 316.382812 328.953125 324.515625 329.578125 C 332.664062 330.203125 337.042969 329.578125 345.828125 330.828125 C 354.597656 332.089844 363.992188 334.601562 365.863281 328.953125 C 367.746094 323.308594 360.863281 317.039062 355.84375 316.402344 C 350.828125 315.777344 338.925781 312.640625 335.171875 306.996094 C 331.417969 301.363281 325.777344 294.457031 325.777344 294.457031 L 322.007812 292.585938 C 322.007812 292.585938 310.746094 251.195312 307.613281 243.039062 C 304.480469 234.882812 292.578125 208.539062 281.300781 195.378906 C 270.023438 182.199219 254.988281 172.171875 251.855469 168.414062 C 248.726562 164.652344 246.21875 162.144531 246.21875 162.144531 C 246.21875 162.144531 243.085938 155.234375 239.332031 146.453125 C 235.5625 137.671875 233.070312 131.402344 230.558594 128.894531 C 228.050781 126.398438 226.167969 123.261719 226.167969 123.261719 C 226.167969 123.261719 224.28125 122.625 226.167969 116.976562 C 228.050781 111.332031 234.9375 108.210938 238.695312 111.332031 C 242.460938 114.480469 259.367188 129.53125 263.136719 134.539062 C 266.890625 139.558594 276.90625 147.714844 279.417969 154.609375 C 281.925781 161.503906 296.957031 180.328125 301.335938 184.085938 C 305.726562 187.84375 309.484375 194.113281 309.484375 194.113281 L 308.238281 198.511719 C 308.238281 198.511719 318.878906 211.050781 323.269531 217.945312 C 327.648438 224.851562 335.796875 230.5 338.925781 236.144531 C 342.058594 241.773438 345.191406 246.796875 345.191406 251.195312 C 345.191406 255.578125 347.363281 257.171875 349.582031 254.953125 C 352.089844 252.441406 356.46875 259.960938 359.601562 258.085938 C 362.730469 256.199219 362.730469 256.199219 362.730469 256.199219 C 362.730469 256.199219 367.125 260.597656 368.996094 257.464844 C 370.878906 254.328125 366.484375 251.195312 366.484375 251.195312 L 362.109375 245.546875 C 362.109375 245.546875 369.632812 251.195312 372.125 248.683594 C 374.632812 246.171875 372.761719 241.773438 370.253906 240.527344 C 367.746094 239.277344 357.09375 233.632812 352.089844 227.363281 C 347.074219 221.09375 342.683594 218.582031 337.042969 206.667969 C 331.417969 194.753906 328.285156 189.730469 328.285156 189.730469 C 325.15625 187.84375 315.121094 170.285156 309.484375 158.992188 C 303.84375 147.714844 290.070312 138.3125 288.1875 133.289062 C 286.300781 128.269531 270.644531 108.210938 267.515625 98.792969 C 264.382812 89.390625 252.480469 78.738281 248.101562 71.203125 C 243.710938 63.6875 229.921875 57.402344 225.542969 55.53125 C 221.167969 53.644531 211.757812 51.132812 211.757812 51.132812 C 211.757812 51.132812 213.640625 43.617188 213.019531 41.105469 C 212.394531 38.59375 209.886719 35.460938 209.886719 35.460938 C 209.886719 35.460938 214.265625 19.785156 206.757812 9.742188 C 199.230469 -0.285156 179.804688 2.222656 174.804688 3.472656 C 169.789062 4.734375 161.015625 11.628906 159.769531 17.898438 C 158.507812 24.167969 157.886719 36.707031 159.148438 42.351562 C 160.394531 48 159.148438 54.890625 159.148438 54.890625 "
     fill-opacity="1"
     fill-rule="nonzero"
     id="path20" />
</svg>
