<?xml version="1.0" encoding="UTF-8" standalone="no"?>
<svg
   width="300"
   zoomAndPan="magnify"
   viewBox="0 0 225 234.74999"
   height="313"
   preserveAspectRatio="xMidYMid"
   version="1.0"
   id="svg26"
   sodipodi:docname="Defensor.svg"
   inkscape:version="1.2.2 (b0a8486541, 2022-12-01)"
   xmlns:inkscape="http://www.inkscape.org/namespaces/inkscape"
   xmlns:sodipodi="http://sodipodi.sourceforge.net/DTD/sodipodi-0.dtd"
   xmlns="http://www.w3.org/2000/svg"
   xmlns:svg="http://www.w3.org/2000/svg">
  <sodipodi:namedview
     id="namedview28"
     pagecolor="#ffffff"
     bordercolor="#000000"
     borderopacity="0.25"
     inkscape:showpageshadow="2"
     inkscape:pageopacity="0.0"
     inkscape:pagecheckerboard="0"
     inkscape:deskcolor="#d1d1d1"
     showgrid="false"
     inkscape:zoom="0.94394619"
     inkscape:cx="301.92399"
     inkscape:cy="142.48694"
     inkscape:window-width="1854"
     inkscape:window-height="1011"
     inkscape:window-x="66"
     inkscape:window-y="32"
     inkscape:window-maximized="1"
     inkscape:current-layer="svg26" />
  <defs
     id="defs8">
    <clipPath
       id="8d03388b18">
      <path
         d="m 0.15625,0 h 375.1875 V 334 H 0.15625 Z m 0,0"
         clip-rule="nonzero"
         id="path2" />
    </clipPath>
    <clipPath
       id="34ff5cdd9a">
      <path
         d="m 258.66406,71.15625 h 28.07813 v 23.234375 h -28.07813 z m 0,0"
         clip-rule="nonzero"
         id="path5" />
    </clipPath>
  </defs>
  <path
     fill="#000000"
     d="m 196.33025,200.34233 c 0,0 4.60547,2.13672 5.85156,3.9336 1.18359,1.60937 2.53125,3.0664 4.04297,4.375 0.67187,0.57031 8.32031,5.85156 9.89453,7.19922 1.57422,1.35156 5.38672,9.10547 4.82813,12.36328 -0.5625,3.25781 -0.22266,5.16797 -3.03125,5.05859 -2.8086,-0.11328 -9.33204,-3.58984 -10.23438,-4.49609 -0.89453,-0.89453 -4.60547,-0.78906 -4.60547,-0.78906 0,0 -1.90625,-0.33594 -2.92187,-1.23438 -0.95703,-0.75781 -1.96875,-1.43359 -3.03907,-2.02734 0,0 -11.67968,3.71484 -13.8164,4.95312 -2.14063,1.24219 -3.15235,1.45313 -5.28906,2.35938 -2.13672,0.90234 -4.60547,5.05468 -11.00782,0.44531 -6.41406,-4.60547 -9,-5.84375 -9.67187,-9.77734 -0.67188,-3.9336 -3.03125,-11.34766 -3.03125,-13.48438 0.0625,-1.61719 -0.0156,-3.23047 -0.23047,-4.83594 -0.16406,-0.82031 -0.42188,-1.60547 -0.78125,-2.35547 l -2.8125,-2.14062 c 0,0 -2.13672,-0.33594 -2.13672,-0.89844 -0.12109,-0.76562 -0.30859,-1.51562 -0.5625,-2.24609 0,0 -4.94922,-6.17969 -7.08594,-10.79297 -2.13672,-4.60938 -3.58984,-8.08984 -4.26172,-8.87891 -0.68359,-0.78515 -10.5664,0.67969 -13.5,2.36328 -2.91796,1.6875 -9.09765,3.14454 -11.45703,4.16016 -2.35937,1.01172 -6.17968,2.01953 -8.42968,1.23438 -2.2461,-0.78907 -7.312503,-1.79688 -7.312503,-1.79688 0,0 -9.210937,-1.57422 -14.046875,0.67188 -4.828125,2.24609 -10.785156,10.5664 -16.746094,14.38671 -5.960937,3.82422 -19.667968,10.11329 -22.820312,12.70313 -3.140625,2.57812 -15.390625,13.71094 -17.527344,15.62109 -2.136718,1.91016 -5.621094,3.81641 -7.535156,3.26172 -1.90625,-0.5664 -3.59375,-0.34375 -3.703125,-0.90234 -0.234375,-0.63281 -0.535156,-1.23438 -0.90625,-1.79688 l 0.675781,-1.1289 -0.453125,-1.46094 -1.566406,-0.89844 c 0,0 -1.199219,0.9336 -1.429687,-0.63672 -0.152344,-0.72265 -0.164063,-1.44531 -0.03516,-2.17187 v -1.45703 c 0,0 0.222657,-0.34375 0,-1.24219 -0.28125,-0.75391 -0.691406,-1.42578 -1.2343747,-2.01953 l -0.902344,-1.46094 -0.671874,-1.01562 -0.902344,-0.89454 -0.5625,-0.78515 -0.894532,-0.78906 -0.679687,-0.5625 -0.785156,-0.78907 -0.671875,-1.01172 c -0.140625,-0.35937 -0.21875,-0.73046 -0.230469,-1.11718 -0.058594,-0.375 -0.058594,-0.75 0,-1.125 0.070313,-0.60157 0.070313,-1.19922 0,-1.80078 l -0.441406,-0.78907 -0.453125,-0.55468 c 0,0 -0.33984402,0.33593 -0.67187502,-0.78907 -0.339844,-1.12109 -0.449219,-0.90234 -0.339844,-1.46484 0.109375,-0.5625 0.453125,-0.22656 0.453125,-1.125 v -1.57422 c -0.152344,-0.32422 -0.265625,-0.66016 -0.34375,-1.00781 -0.117188,-0.40625 -0.152344,-0.82031 -0.109375,-1.24219 v -1.56641 c 0,-1.125 -0.56250003,-1.24218 0.230469,-1.91406 0.78125002,-0.67187 3.36328102,-1.23437 6.18359402,1.6875 2.8085927,2.92578 2.4648427,4.04297 5.2773427,5.17188 2.808594,1.13281 4.835938,2.47265 6.289063,3.03515 1.464844,0.5625 1.796875,2.69532 4.277344,1.57032 2.476562,-1.125 9.660156,-6.74219 12.921874,-8.98829 3.261719,-2.25 12.703126,-10.23046 16.527344,-11.91406 3.824219,-1.6875 10.222656,-5.95703 11.6875,-7.30469 1.457032,-1.35156 5.953125,-9.59765 8.035156,-10.89062 2.082032,-1.29688 3.996094,-1.92188 6.6875,-3.5 2.308594,-1.42969 4.519532,-3.00391 6.632813,-4.71875 1.011719,-0.78906 17.871092,-11.01172 19.445312,-11.46484 1.57422,-0.44922 3.82422,-0.33594 4.4961,-0.33594 0.67187,0 8.54687,-4.27344 8.54687,-4.27344 0,0 0.89453,-0.10937 0.44141,-1.00781 -0.40625,-0.77344 -0.85547,-1.51953 -1.34375,-2.2461 0,0 8.64843,-15.28906 8.77343,-20.67968 0.10938,-5.39844 6.6211,-13.82422 7.52344,-16.1875 0.90235,-2.363282 1.23438,-9.777352 1.35547,-12.808598 0.10938,-3.035156 -0.12109,-7.871094 -0.12109,-7.871094 0,0 -0.67188,-2.917969 0.12109,-3.707031 0.78125,-0.789063 1.79688,-2.699219 1.79688,-4.160157 0,-1.457031 0.78125,-2.355468 -1.35547,-4.828124 -2.12891,-2.476563 -3.70313,-2.589844 -4.60547,-3.035157 -0.90625,-0.449219 -8.76953,-6.070312 -11.12891,-8.09375 -2.35547,-2.023437 -9.77344,-6.746093 -11.80078,-6.632812 -2.02734,0.117187 -4.83594,1.125 -5.05469,1.796875 -0.22656,0.621094 -0.30078,1.257812 -0.23437,1.914062 0,1.121094 -0.67188,1.347656 0.12109,2.472656 0.22656,0.355469 0.35156,0.742188 0.3711,1.164063 0.0195,0.417969 -0.0664,0.816406 -0.25782,1.191406 -0.29687,-0.07813 -0.59765,-0.117187 -0.90625,-0.109375 -0.38672,0.01172 -0.76172,0.08594 -1.12109,0.226563 0,0 0.90234,0.335937 0,0.898437 -0.894528,0.558594 -1.015628,0.449219 -1.015628,0.449219 0,0 -4.261718,-0.894531 -5.277343,-1.574219 -1.011718,-0.679687 -4.605468,-3.148437 -4.835937,-4.609375 -0.222657,-1.457031 -1.90625,-4.273437 -0.902344,-6.519531 1.011719,-2.25 8.097656,-9.777344 11.136724,-9.890625 3.031248,-0.113281 24.613278,7.53125 29.449218,9.101563 4.82812,1.574218 6.51172,2.472656 7.63672,2.585937 1.125,0.113281 1.35546,0.898437 1.6875,0.109375 0.33984,-0.785156 -0.11329,-3.371094 -0.11329,-3.371094 0,-0.5625 0.0352,-1.125 0.11329,-1.683594 0.10937,-0.5625 3.71093,-3.597656 5.28906,-5.28125 1.57422,-1.6875 4.15234,-5.175781 8.76953,-5.058593 4.60547,0.109375 7.41016,2.472656 10.44141,4.496093 3.04296,2.019532 7.75781,6.296876 7.86718,7.753907 0.1211,1.460937 0,1.570312 0,3.597656 0,2.027344 0.34375,2.699219 0.34375,3.816406 0,1.117188 0.10938,1.914063 1.01172,1.125 0.89453,-0.78125 4.26563,-2.359375 5.51172,-1.34375 1.23047,1.007813 1.23047,1.570313 1.90625,2.132813 0.67188,0.5625 1.12109,1.011718 1.68359,0.785156 0.5625,-0.222656 2.58594,-1.121094 2.58594,-1.121094 0,0 11.47266,-2.695312 12.70313,-3.933594 1.23437,-1.238281 9.32422,-6.070312 9.55468,-7.980468 0.22266,-1.90625 -5.39843,-13.148438 -8.3164,-16.183594 -2.92188,-3.035156 -9.90625,-10.34375 -11.42578,-11.132812 -1.52344,-0.785157 -3.60547,-3.828126 -4.38672,-4.667969 -0.78125,-0.8437496 -1.06641,-1.0156246 -2.02735,-2.0273436 -0.95703,-1.015625 -2.41406,-1.519531 -2.52343,-2.535156 -0.1211,-1.011719 0.33203,-1.742188 0.89453,-2.585938 0.41015,-0.65625 0.93359,-1.199219 1.57422,-1.628906 0.28125,-0.152344 0.46875,-0.378906 0.5625,-0.679687 0,0 2.02734,0.171874 2.35547,-0.22656297 0.34375,-0.390625 1.7539,-0.726563 1.7539,-0.726563 0,0 -0.17578,-0.226562 1.34375,-0.117187 1.51953,0.113281 2.47656,0.117187 2.47656,0.117187 l 2.19532,0.28125 c 0,0 0.5625,-0.566406 1.5625,0.164063 1.01953,0.67578097 1.91797,1.48437497 2.69922,2.42578097 0.6289,0.84375 2.64453,3.992188 2.82031,4.335938 0.16797,0.335937 1.46875,5.8593746 3.71484,6.6484366 2.2461,0.785157 11.92188,13.480469 14.60938,16.96875 2.69922,3.480469 10.45703,10.785157 9.11328,15.730469 -1.35547,4.945312 -3.15235,6.859375 -6.1836,9.550781 -3.03906,2.699219 -15.62109,12.476563 -16.74609,15.628907 -1.125,3.148437 -9.44141,21.015622 -13.26562,25.507812 -3.82032,4.496092 -3.3711,24.054692 -3.60157,27.875002 -0.21875,3.82031 -1.34375,13.71484 -3.37109,17.08594 -2.01563,3.37109 -1.34375,4.9414 -3.14063,6.96875 -1.79687,2.02734 -4.27343,4.04297 -4.27343,5.16406 0,1.125 -2.25,3.37109 0.44922,7.87109 2.69921,4.5 2.92187,4.04688 2.92187,6.74219 0,2.69922 -0.21875,2.92188 -0.21875,4.04297 v 3.37109 c 0,0 1.5625,-0.89453 1.5625,2.47657 0,3.37109 -0.22266,4.04687 -0.22266,5.61718 0,1.57032 -0.21875,1.35157 -0.21875,4.5 -0.0156,1.65235 0.0547,3.30078 0.21875,4.94141 l -0.21875,4.05078 c 0,0 -1.25781,1.92188 -0.58203,3.44141 0.67188,1.51953 0.95703,2.08203 1.23438,2.8125 0.28515,0.73437 0,1.46875 1.6289,1.57812 1.62891,0.10938 2.42188,1.51953 4.21875,1.06641 1.79688,-0.44922 2.64454,-0.16406 3.48438,-1.23828 0.84375,-1.06641 2.02734,-1.96485 2.80859,-3.20703 0.79297,-1.23829 1.24219,-2.42188 2.53516,-2.42188 0.92578,-0.0117 1.84766,0.0625 2.76562,0.21484 z m 0,0"
     fill-opacity="1"
     fill-rule="evenodd"
     id="path20" />
</svg>
