<?xml version="1.0" encoding="UTF-8" standalone="no"?>
<svg
   width="500"
   zoomAndPan="magnify"
   viewBox="0 0 375 374.999991"
   height="500"
   preserveAspectRatio="xMidYMid meet"
   version="1.0"
   id="svg17"
   sodipodi:docname="pateador.svg"
   inkscape:version="1.2.2 (b0a8486541, 2022-12-01)"
   xmlns:inkscape="http://www.inkscape.org/namespaces/inkscape"
   xmlns:sodipodi="http://sodipodi.sourceforge.net/DTD/sodipodi-0.dtd"
   xmlns="http://www.w3.org/2000/svg"
   xmlns:svg="http://www.w3.org/2000/svg">
  <sodipodi:namedview
     id="namedview19"
     pagecolor="#ffffff"
     bordercolor="#000000"
     borderopacity="0.25"
     inkscape:showpageshadow="2"
     inkscape:pageopacity="0.0"
     inkscape:pagecheckerboard="0"
     inkscape:deskcolor="#d1d1d1"
     showgrid="false"
     inkscape:zoom="0.59538391"
     inkscape:cx="193.15268"
     inkscape:cy="230.94343"
     inkscape:window-width="1452"
     inkscape:window-height="749"
     inkscape:window-x="116"
     inkscape:window-y="118"
     inkscape:window-maximized="0"
     inkscape:current-layer="svg17" />
  <defs
     id="defs5">
    <clipPath
       id="dd0e1db2eb">
      <path
         d="M 320.128906 317.234375 L 374.949219 317.234375 L 374.949219 371.25 L 320.128906 371.25 Z M 320.128906 317.234375 "
         clip-rule="nonzero"
         id="path2" />
    </clipPath>
  </defs>
  <path
     fill="#000000"
     d="M 159.550781 58.777344 C 159.550781 58.777344 163.6875 51.507812 163.035156 49.394531 C 162.382812 47.285156 156.34375 34.191406 156.34375 27.933594 C 156.34375 21.679688 159.910156 8.878906 167.980469 4.433594 C 176.058594 0.00390625 187.46875 2.472656 192.632812 5.167969 C 197.796875 7.859375 205.214844 18.1875 204.84375 19.789062 C 204.480469 21.390625 206.007812 23.789062 202.808594 27.058594 C 202.808594 27.058594 201.992188 30.242188 202.703125 32.101562 C 203.40625 33.957031 203.796875 34.5 203.191406 35.59375 C 202.589844 36.679688 202.320312 37.5 202.101562 38.101562 C 201.886719 38.699219 201.175781 39.304688 201.121094 40.230469 C 201.0625 41.15625 200.792969 43.339844 200.792969 44.648438 C 200.792969 45.957031 200.957031 47.976562 200.027344 49.175781 C 199.097656 50.378906 198.558594 51.90625 198.445312 52.773438 C 198.335938 53.652344 198.066406 55.234375 196.972656 56.757812 C 195.890625 58.289062 194.902344 59.929688 194.738281 60.742188 C 194.582031 61.5625 194.46875 62 195.066406 62.214844 C 195.667969 62.433594 199.429688 62.980469 204.066406 63.910156 C 208.695312 64.835938 210.121094 66.636719 214.59375 66.578125 C 219.066406 66.523438 224.515625 68.648438 227.1875 70.894531 C 229.863281 73.128906 234.113281 77.820312 235.964844 79.949219 C 237.820312 82.078125 245.023438 88.351562 247.472656 90.371094 C 249.929688 92.386719 263.175781 102.914062 264.324219 103.738281 C 265.46875 104.554688 270.488281 104.613281 266.34375 107.988281 C 262.203125 111.375 256.585938 115.957031 256.367188 116.226562 C 256.148438 116.5 252.8125 119.832031 252.8125 119.832031 C 252.8125 119.832031 253.535156 121.140625 254.394531 121.25 C 255.273438 121.355469 256.253906 120.8125 256.035156 119.832031 C 255.820312 118.847656 255.765625 118.195312 257.667969 117.046875 C 259.578125 115.90625 258.816406 116.390625 260.1875 115.410156 C 261.542969 114.429688 263.019531 113.992188 264.21875 114.261719 C 265.417969 114.539062 265.582031 113.71875 267.433594 113.609375 C 269.292969 113.5 271.027344 114.15625 271.464844 115.027344 C 271.90625 115.90625 271.851562 116.066406 273 116.777344 C 274.140625 117.480469 275.507812 118.03125 275.617188 119.015625 C 275.726562 119.996094 275.945312 120.785156 276.214844 121.261719 C 276.492188 121.738281 277.414062 122.722656 277.308594 123.433594 C 277.195312 124.140625 277.742188 124.90625 278.175781 125.828125 C 278.613281 126.761719 279.59375 126.59375 278.835938 127.90625 C 278.074219 129.214844 278.558594 131.234375 277.683594 132.324219 C 276.820312 133.417969 273.703125 135.105469 272.503906 134.941406 C 271.3125 134.773438 270.65625 135.21875 270.054688 133.140625 L 268.414062 133.363281 C 268.414062 133.363281 266.5625 140.398438 260.34375 143.726562 C 254.125 147.054688 248.566406 145.421875 244.960938 140.996094 C 241.371094 136.578125 238.261719 132.703125 237.109375 131.722656 C 235.964844 130.746094 235.15625 132.269531 234.660156 131.289062 C 234.164062 130.304688 233.789062 127.90625 230.296875 125.066406 C 226.808594 122.230469 225.007812 121.25 223.863281 119.832031 C 222.714844 118.414062 221.515625 119.609375 221.351562 120.648438 C 221.1875 121.6875 219.988281 121.355469 221.136719 124.738281 C 222.28125 128.125 221.1875 132.703125 221.300781 135.976562 C 221.40625 139.253906 220.96875 144.269531 220.863281 146.453125 C 220.753906 148.640625 221.734375 156.277344 221.683594 157.203125 C 221.621094 158.132812 221.1875 164.402344 222.550781 167.839844 C 223.914062 171.277344 225.496094 172.914062 225.332031 175.589844 C 225.171875 178.265625 225.660156 186.609375 225.832031 192.71875 C 225.988281 198.828125 225.0625 200.796875 226.859375 203.851562 C 228.65625 206.90625 229.96875 208.925781 229.308594 211.164062 C 228.65625 213.40625 226.753906 213.179688 227.023438 214.710938 C 227.292969 216.234375 229.371094 224.261719 228.222656 227.914062 C 227.078125 231.570312 226.695312 235.609375 226.695312 235.609375 C 226.695312 235.609375 233.570312 246.625 235.257812 249.625 C 236.953125 252.632812 238.855469 255.460938 239.019531 258.789062 C 239.183594 262.117188 239.566406 266.214844 239.671875 269.101562 C 239.785156 271.996094 239.070312 277.890625 240.164062 282.144531 C 241.253906 286.394531 246.550781 297.910156 248.617188 304.679688 C 250.695312 311.445312 252.597656 319.792969 254.289062 322.519531 C 255.984375 325.246094 258.441406 328.304688 259.960938 330.539062 C 261.492188 332.773438 262.90625 336.15625 263.511719 336.382812 C 264.105469 336.59375 264.652344 336.976562 266.34375 336.871094 C 268.03125 336.753906 269.832031 338.335938 270.21875 340.242188 C 270.601562 342.160156 275.066406 342.648438 275.832031 343.417969 C 276.597656 344.179688 275.554688 345.867188 275.554688 345.867188 C 275.554688 345.867188 276.980469 347.507812 278.558594 347.613281 C 280.140625 347.722656 283.085938 349.304688 284.941406 349.90625 C 286.800781 350.507812 292.953125 351.648438 294.046875 353.285156 C 295.140625 354.925781 296.113281 357.976562 291.976562 360.765625 C 287.828125 363.542969 278.941406 365.285156 274.792969 365.945312 C 270.65625 366.605469 260.34375 366.871094 256.253906 367.359375 C 252.160156 367.855469 242.078125 368.289062 241.148438 365.785156 C 240.226562 363.269531 240.816406 364.257812 242.023438 361.363281 C 243.222656 358.46875 243.605469 355.085938 243.929688 353.621094 C 244.257812 352.140625 245.292969 349.035156 244.578125 348.058594 C 243.875 347.070312 242.183594 340.035156 238.75 334.464844 C 235.3125 328.902344 230.457031 320.054688 227.839844 315.535156 C 225.226562 311.003906 215.566406 293.277344 215.296875 285.03125 C 215.027344 276.796875 214.375 275.105469 214.375 275.105469 C 214.375 275.105469 212.789062 278 212.789062 280.015625 C 212.789062 282.035156 213.011719 291.195312 210.339844 293.871094 C 207.664062 296.550781 201.773438 300.855469 195.945312 300.367188 C 190.101562 299.878906 187.980469 299.171875 180.675781 302.222656 C 173.363281 305.277344 165.890625 306.480469 159.074219 307.730469 C 152.253906 308.988281 144.183594 314.550781 143.585938 315.480469 C 142.984375 316.40625 143.742188 320.554688 141.300781 322.679688 C 138.84375 324.804688 139 325.410156 138.84375 327.050781 C 138.683594 328.683594 136.820312 334.960938 136.4375 336.816406 C 136.0625 338.667969 134.863281 341.453125 130.710938 341.554688 C 126.570312 341.664062 124.71875 340.089844 122.375 336.425781 C 120.027344 332.773438 119.046875 320.773438 114.789062 318.148438 C 110.542969 315.535156 106.339844 313.300781 106.667969 306.203125 C 106.996094 299.113281 109.554688 295.183594 112.28125 294.859375 C 115.007812 294.523438 117.414062 295.675781 119.585938 296.550781 C 121.765625 297.417969 127.117188 298.460938 128.808594 298.460938 C 130.503906 298.460938 134.96875 296.714844 139.492188 294.796875 C 144.027344 292.890625 150.019531 288.851562 152.3125 287.929688 C 154.597656 287 158.308594 283.996094 160 283.34375 C 161.6875 282.695312 166.492188 278.976562 171.726562 277.78125 C 176.957031 276.578125 184.164062 276.90625 184.433594 276.089844 C 184.707031 275.269531 185.632812 265.503906 184.921875 260.921875 C 184.210938 256.339844 182.308594 254.867188 181.59375 254.148438 C 180.890625 253.445312 180.507812 252.359375 178.269531 248.804688 C 176.035156 245.261719 179.144531 243.570312 175.054688 238.226562 C 170.964844 232.875 168.511719 227.640625 167.90625 227.152344 C 167.3125 226.65625 166.109375 227.804688 164.363281 225.457031 C 162.625 223.109375 157.4375 215.964844 153.566406 201.941406 C 149.691406 187.917969 148.925781 179.136719 144.949219 169.152344 C 140.96875 159.167969 139.277344 152.292969 136.167969 145.035156 C 133.058594 137.777344 131.589844 131.066406 130.660156 128.125 C 129.738281 125.175781 129.078125 117.378906 122.539062 113.171875 C 115.988281 108.96875 110.648438 106.242188 107.101562 107.609375 C 103.558594 108.96875 101.8125 110.769531 99.25 108.046875 C 96.6875 105.320312 92.484375 97.515625 91.339844 97.1875 C 90.199219 96.863281 90.355469 96.042969 88.019531 95.445312 C 85.664062 94.84375 76.457031 94.511719 72.140625 94.40625 C 67.839844 94.296875 63.855469 92.710938 60.363281 91.023438 C 56.878906 89.332031 51.746094 86.824219 45.96875 82.078125 C 40.183594 77.328125 32.714844 69.527344 28.085938 65.539062 C 23.445312 61.5625 17.289062 56.488281 14.558594 55.285156 C 11.824219 54.085938 8.835938 52.613281 6.160156 50.648438 C 3.484375 48.6875 1.035156 45.085938 0.921875 43.773438 C 0.8125 42.464844 1.410156 40.394531 2.285156 40.339844 C 2.285156 40.339844 0.046875 38.375 0.488281 36.570312 C 0.921875 34.777344 1.6875 33.957031 3.328125 34.0625 C 3.328125 34.0625 1.191406 32.15625 1.191406 31.070312 C 1.191406 29.972656 1.738281 27.953125 2.832031 27.84375 C 3.921875 27.734375 5.5 28.117188 5.5 28.117188 C 5.5 28.117188 3.703125 25.554688 4.144531 24.023438 C 4.570312 22.5 5.449219 22.226562 7.300781 22.390625 C 9.15625 22.554688 9.59375 23.152344 9.59375 23.152344 C 9.59375 23.152344 9.652344 22.390625 10.902344 22.5 C 12.15625 22.605469 11.9375 23.097656 12.433594 23.914062 C 12.917969 24.730469 14.179688 25.664062 15.59375 26.425781 C 17.011719 27.1875 18.15625 29.425781 19.851562 30.40625 C 21.535156 31.390625 22.785156 33.574219 22.847656 34.660156 C 22.898438 35.757812 23.117188 37.28125 24.105469 39.136719 C 25.078125 40.996094 25.078125 44.921875 27.261719 46.664062 C 29.441406 48.414062 40.902344 56.324219 44.066406 58.234375 C 47.222656 60.144531 52.398438 63.035156 59.222656 64.890625 C 66.042969 66.742188 69.414062 68.8125 72.6875 70.726562 C 75.96875 72.632812 77.542969 74.21875 79.890625 73.945312 C 82.234375 73.675781 80.167969 73.019531 83.925781 73.128906 C 87.6875 73.238281 89.972656 73.890625 94.179688 73.183594 C 98.382812 72.472656 102.960938 71.277344 105.085938 71.65625 C 107.207031 72.035156 108.085938 71.980469 109.890625 71.929688 C 111.679688 71.871094 112.0625 72.363281 113.375 70.945312 C 114.679688 69.527344 116.589844 68.109375 118.550781 68.164062 C 120.523438 68.21875 122.425781 65.160156 127.0625 64.785156 C 131.695312 64.398438 134.421875 64.398438 136.28125 63.855469 C 138.128906 63.304688 140.535156 62.054688 144.183594 62.488281 C 147.839844 62.925781 149.527344 62.980469 151.167969 62.707031 C 152.800781 62.433594 154.226562 61.617188 155.199219 61.398438 C 156.179688 61.179688 156.457031 59.652344 157.386719 59.378906 C 158.308594 59.109375 159.550781 58.777344 159.550781 58.777344 "
     fill-opacity="1"
     fill-rule="nonzero"
     id="path11" />
  <g
     clip-path="url(#dd0e1db2eb)"
     id="g15">
    <path
       fill="#000000"
       d="M 347.558594 317.328125 C 332.449219 317.328125 320.160156 329.425781 320.160156 344.289062 C 320.160156 359.164062 332.449219 371.253906 347.558594 371.253906 C 362.660156 371.253906 374.949219 359.164062 374.949219 344.289062 C 374.949219 329.425781 362.660156 317.328125 347.558594 317.328125 Z M 323.851562 333.265625 C 323.851562 333.265625 323.851562 333.265625 323.851562 333.269531 Z M 322.679688 336.1875 C 322.65625 336.246094 322.628906 336.316406 322.605469 336.382812 C 322.632812 336.308594 322.648438 336.21875 322.671875 336.136719 Z M 322.382812 337.183594 C 322.257812 337.621094 322.140625 338.0625 322.042969 338.503906 C 322.011719 338.578125 321.984375 338.625 321.953125 338.714844 C 322.066406 338.1875 322.238281 337.6875 322.382812 337.183594 Z M 322.1875 350.78125 C 322.210938 350.863281 322.238281 350.953125 322.253906 351.035156 C 322.222656 350.933594 322.179688 350.820312 322.148438 350.714844 C 322.164062 350.738281 322.179688 350.753906 322.1875 350.78125 Z M 373.625 346.773438 C 373.648438 346.515625 373.648438 346.253906 373.660156 345.992188 C 373.683594 345.976562 373.699219 345.96875 373.71875 345.953125 C 373.707031 346.222656 373.648438 346.496094 373.625 346.773438 Z M 372.722656 351.53125 C 372.738281 351.488281 372.746094 351.441406 372.761719 351.398438 C 372.746094 351.441406 372.738281 351.488281 372.722656 351.53125 Z M 373.285156 349.199219 C 373.375 348.699219 373.453125 348.167969 373.519531 347.648438 C 373.453125 348.167969 373.382812 348.699219 373.285156 349.199219 Z M 373.742188 344.378906 C 373.742188 344.375 373.742188 344.367188 373.742188 344.351562 C 373.742188 342.632812 373.570312 340.960938 373.25 339.335938 C 373.578125 340.949219 373.78125 342.589844 373.78125 344.289062 C 373.78125 344.3125 373.78125 344.328125 373.78125 344.351562 C 373.773438 344.359375 373.757812 344.375 373.742188 344.378906 Z M 371.992188 334.980469 C 372.109375 335.289062 372.222656 335.601562 372.335938 335.917969 C 372.230469 335.601562 372.109375 335.289062 371.992188 334.980469 Z M 372.738281 337.222656 C 372.90625 337.792969 373.054688 338.367188 373.1875 338.960938 C 373.070312 338.367188 372.894531 337.792969 372.738281 337.222656 "
       fill-opacity="1"
       fill-rule="nonzero"
       id="path13" />
  </g>
</svg>
